<?xml version="1.0"?>
<VTKFile type="UnstructuredGrid" version="2.2">
  <UnstructuredGrid>
    <Piece NumberOfPoints="121" NumberOfCells="200">
      <Points>
        <DataArray type="Float64" NumberOfComponents="3" format="ascii">0.9000000000000001 -2.154228071576087e-18 0 1 -2.154228071576087e-18 0 1 0.1 0 0.9000000000000001 0.1 0 0.8000000000000002 -2.154228071576087e-18 0 1 0.2 0 0.8000000000000002 0.1 0 0.9000000000000001 0.2 0 0.7000000000000002 -2.154228071576087e-18 0 1 0.3000000000000001 0 0.7000000000000002 0.1 0 0.8000000000000002 0.2 0 0.9000000000000001 0.3000000000000001 0 0.6000000000000001 -2.154228071576087e-18 0 1 0.4000000000000001 0 0.6000000000000001 0.1 0 0.7000000000000002 0.2 0 0.8000000000000002 0.3000000000000001 0 0.9000000000000001 0.4000000000000001 0 0.5 -2.154228071576087e-18 0 1 0.5 0 0.5 0.1 0 0.6000000000000001 0.2 0 0.7000000000000002 0.3000000000000001 0 0.8000000000000002 0.4000000000000001 0 0.9000000000000001 0.5 0 0.4000000000000001 -2.154228071576087e-18 0 1 0.6000000000000002 0 0.4000000000000001 0.1 0 0.5 0.2 0 0.6000000000000001 0.3000000000000001 0 0.7000000000000002 0.4000000000000001 0 0.8000000000000002 0.5 0 0.9000000000000001 0.6000000000000002 0 0.3 -2.154228071576087e-18 0 1 0.7000000000000002 0 0.3 0.1 0 0.4000000000000001 0.2 0 0.5 0.3000000000000001 0 0.6000000000000001 0.4000000000000001 0 0.7000000000000002 0.5 0 0.8000000000000002 0.6000000000000002 0 0.9000000000000001 0.7000000000000002 0 0.2 -2.154228071576087e-18 0 1 0.8000000000000002 0 0.2 0.1 0 0.3 0.2 0 0.4000000000000001 0.3000000000000001 0 0.5 0.4000000000000001 0 0.6000000000000001 0.5 0 0.7000000000000002 0.6000000000000002 0 0.8000000000000002 0.7000000000000002 0 0.9000000000000001 0.8000000000000002 0 0.1 -2.154228071576087e-18 0 1 0.9000000000000001 0 0.1 0.1 0 0.2 0.2 0 0.3 0.3000000000000001 0 0.4000000000000001 0.4000000000000001 0 0.5 0.5 0 0.6000000000000001 0.6000000000000002 0 0.7000000000000002 0.7000000000000002 0 0.8000000000000002 0.8000000000000002 0 0.9000000000000001 0.9000000000000001 0 2.154228071576087e-18 2.154228071576087e-18 0 0.9999999999999999 0.9999999999999999 0 2.154228071576087e-18 0.1 0 0.1 0.2 0 0.2 0.3000000000000001 0 0.3 0.4000000000000001 0 0.4000000000000001 0.5 0 0.5 0.6000000000000002 0 0.6000000000000001 0.7000000000000002 0 0.7000000000000002 0.8000000000000002 0 0.8000000000000002 0.9000000000000001 0 0.8999999999999999 0.9999999999999999 0 2.154228071576087e-18 0.2 0 0.1 0.3000000000000001 0 0.2 0.4000000000000001 0 0.3 0.5 0 0.4000000000000001 0.6000000000000002 0 0.5 0.7000000000000002 0 0.6000000000000001 0.8000000000000002 0 0.7000000000000002 0.9000000000000001 0 0.7999999999999999 0.9999999999999999 0 2.154228071576087e-18 0.3 0 0.1 0.4000000000000001 0 0.2 0.5 0 0.3 0.6000000000000002 0 0.4000000000000001 0.7000000000000002 0 0.5 0.8000000000000002 0 0.6000000000000001 0.9000000000000001 0 0.7 0.9999999999999999 0 2.154228071576087e-18 0.4 0 0.1 0.5 0 0.2 0.6000000000000002 0 0.3 0.7000000000000002 0 0.4000000000000001 0.8000000000000002 0 0.5 0.9000000000000001 0 0.6000000000000001 0.9999999999999999 0 2.154228071576087e-18 0.5 0 0.1 0.6000000000000002 0 0.2 0.7000000000000002 0 0.3 0.8000000000000002 0 0.4000000000000001 0.9000000000000001 0 0.4999999999999999 0.9999999999999999 0 2.154228071576087e-18 0.6000000000000001 0 0.1 0.7000000000000002 0 0.2 0.8000000000000002 0 0.3 0.9000000000000001 0 0.4 0.9999999999999999 0 2.154228071576087e-18 0.7000000000000001 0 0.1 0.8000000000000002 0 0.2 0.9000000000000001 0 0.3 0.9999999999999999 0 2.154228071576087e-18 0.8 0 0.1 0.9000000000000001 0 0.2 0.9999999999999999 0 2.154228071576087e-18 0.9 0 0.1 0.9999999999999999 0 -2.154228071576087e-18 1 0 </DataArray>
      </Points>
      <Cells>
        <DataArray type="Int32" Name="connectivity" format="ascii">0 1 2 0 3 2 4 0 3 3 2 5 4 6 3 3 7 5 8 4 6 6 3 7 7 5 9 8 10 6 6 11 7 7 12 9 13 8 10 10 6 11 11 7 12 12 9 14 13 15 10 10 16 11 11 17 12 12 18 14 19 13 15 15 10 16 16 11 17 17 12 18 18 14 20 19 21 15 15 22 16 16 23 17 17 24 18 18 25 20 26 19 21 21 15 22 22 16 23 23 17 24 24 18 25 25 20 27 26 28 21 21 29 22 22 30 23 23 31 24 24 32 25 25 33 27 34 26 28 28 21 29 29 22 30 30 23 31 31 24 32 32 25 33 33 27 35 34 36 28 28 37 29 29 38 30 30 39 31 31 40 32 32 41 33 33 42 35 43 34 36 36 28 37 37 29 38 38 30 39 39 31 40 40 32 41 41 33 42 42 35 44 43 45 36 36 46 37 37 47 38 38 48 39 39 49 40 40 50 41 41 51 42 42 52 44 53 43 45 45 36 46 46 37 47 47 38 48 48 39 49 49 40 50 50 41 51 51 42 52 52 44 54 53 55 45 45 56 46 46 57 47 47 58 48 48 59 49 49 60 50 50 61 51 51 62 52 52 63 54 64 53 55 55 45 56 56 46 57 57 47 58 58 48 59 59 49 60 60 50 61 61 51 62 62 52 63 63 54 65 64 66 55 55 67 56 56 68 57 57 69 58 58 70 59 59 71 60 60 72 61 61 73 62 62 74 63 63 75 65 66 55 67 67 56 68 68 57 69 69 58 70 70 59 71 71 60 72 72 61 73 73 62 74 74 63 75 66 76 67 67 77 68 68 78 69 69 79 70 70 80 71 71 81 72 72 82 73 73 83 74 74 84 75 76 67 77 77 68 78 78 69 79 79 70 80 80 71 81 81 72 82 82 73 83 83 74 84 76 85 77 77 86 78 78 87 79 79 88 80 80 89 81 81 90 82 82 91 83 83 92 84 85 77 86 86 78 87 87 79 88 88 80 89 89 81 90 90 82 91 91 83 92 85 93 86 86 94 87 87 95 88 88 96 89 89 97 90 90 98 91 91 99 92 93 86 94 94 87 95 95 88 96 96 89 97 97 90 98 98 91 99 93 100 94 94 101 95 95 102 96 96 103 97 97 104 98 98 105 99 100 94 101 101 95 102 102 96 103 103 97 104 104 98 105 100 106 101 101 107 102 102 108 103 103 109 104 104 110 105 106 101 107 107 102 108 108 103 109 109 104 110 106 111 107 107 112 108 108 113 109 109 114 110 111 107 112 112 108 113 113 109 114 111 115 112 112 116 113 113 117 114 115 112 116 116 113 117 115 118 116 116 119 117 118 116 119 118 120 119 </DataArray>
        <DataArray type="Int32" Name="offsets" format="ascii">3 6 9 12 15 18 21 24 27 30 33 36 39 42 45 48 51 54 57 60 63 66 69 72 75 78 81 84 87 90 93 96 99 102 105 108 111 114 117 120 123 126 129 132 135 138 141 144 147 150 153 156 159 162 165 168 171 174 177 180 183 186 189 192 195 198 201 204 207 210 213 216 219 222 225 228 231 234 237 240 243 246 249 252 255 258 261 264 267 270 273 276 279 282 285 288 291 294 297 300 303 306 309 312 315 318 321 324 327 330 333 336 339 342 345 348 351 354 357 360 363 366 369 372 375 378 381 384 387 390 393 396 399 402 405 408 411 414 417 420 423 426 429 432 435 438 441 444 447 450 453 456 459 462 465 468 471 474 477 480 483 486 489 492 495 498 501 504 507 510 513 516 519 522 525 528 531 534 537 540 543 546 549 552 555 558 561 564 567 570 573 576 579 582 585 588 591 594 597 600 </DataArray>
        <DataArray type="Int8" Name="types" format="ascii">69 69 69 69 69 69 69 69 69 69 69 69 69 69 69 69 69 69 69 69 69 69 69 69 69 69 69 69 69 69 69 69 69 69 69 69 69 69 69 69 69 69 69 69 69 69 69 69 69 69 69 69 69 69 69 69 69 69 69 69 69 69 69 69 69 69 69 69 69 69 69 69 69 69 69 69 69 69 69 69 69 69 69 69 69 69 69 69 69 69 69 69 69 69 69 69 69 69 69 69 69 69 69 69 69 69 69 69 69 69 69 69 69 69 69 69 69 69 69 69 69 69 69 69 69 69 69 69 69 69 69 69 69 69 69 69 69 69 69 69 69 69 69 69 69 69 69 69 69 69 69 69 69 69 69 69 69 69 69 69 69 69 69 69 69 69 69 69 69 69 69 69 69 69 69 69 69 69 69 69 69 69 69 69 69 69 69 69 69 69 69 69 69 69 69 69 69 69 69 69 </DataArray>
      </Cells>
      <CellData>
        <DataArray type="UInt8" Name="vtkGhostType" format="ascii" RangeMin="0" RangeMax="1">0 0 0 0 0 0 0 0 0 0 0 0 0 0 0 0 0 0 0 0 0 0 0 0 0 0 0 0 0 0 0 0 0 0 0 0 0 0 0 0 0 0 0 0 0 0 0 0 0 0 0 0 0 0 0 0 0 0 0 0 0 0 0 0 0 0 0 0 0 0 0 0 0 0 0 0 0 0 0 0 0 0 0 0 0 0 0 0 0 0 0 0 0 0 0 0 0 0 0 0 0 0 0 0 0 0 0 0 0 0 0 0 0 0 0 0 0 0 0 0 0 0 0 0 0 0 0 0 0 0 0 0 0 0 0 0 0 0 0 0 0 0 0 0 0 0 0 0 0 0 0 0 0 0 0 0 0 0 0 0 0 0 0 0 0 0 0 0 0 0 0 0 0 0 0 0 0 0 0 0 0 0 0 0 0 0 0 0 0 0 0 0 0 0 0 0 0 0 0 0 </DataArray>
        <DataArray type="Int64" IdType="1" Name="vtkOriginalCellIds" format="ascii" RangeMin="0" RangeMax="199">0 1 2 3 4 5 6 7 8 9 10 11 12 13 14 15 16 17 18 19 20 21 22 23 24 25 26 27 28 29 30 31 32 33 34 35 36 37 38 39 40 41 42 43 44 45 46 47 48 49 50 51 52 53 54 55 56 57 58 59 60 61 62 63 64 65 66 67 68 69 70 71 72 73 74 75 76 77 78 79 80 81 82 83 84 85 86 87 88 89 90 91 92 93 94 95 96 97 98 99 100 101 102 103 104 105 106 107 108 109 110 111 112 113 114 115 116 117 118 119 120 121 122 123 124 125 126 127 128 129 130 131 132 133 134 135 136 137 138 139 140 141 142 143 144 145 146 147 148 149 150 151 152 153 154 155 156 157 158 159 160 161 162 163 164 165 166 167 168 169 170 171 172 173 174 175 176 177 178 179 180 181 182 183 184 185 186 187 188 189 190 191 192 193 194 195 196 197 198 199 </DataArray>
      </CellData>
      <PointData Vectors="displacement">
        <DataArray type="Int64" IdType="1" Name="vtkOriginalPointIds" format="ascii" RangeMin="0" RangeMax="120">0 1 2 3 4 5 6 7 8 9 10 11 12 13 14 15 16 17 18 19 20 21 22 23 24 25 26 27 28 29 30 31 32 33 34 35 36 37 38 39 40 41 42 43 44 45 46 47 48 49 50 51 52 53 54 55 56 57 58 59 60 61 62 63 64 65 66 67 68 69 70 71 72 73 74 75 76 77 78 79 80 81 82 83 84 85 86 87 88 89 90 91 92 93 94 95 96 97 98 99 100 101 102 103 104 105 106 107 108 109 110 111 112 113 114 115 116 117 118 119 120 </DataArray>
        <DataArray type="UInt8" Name="vtkGhostType" format="ascii" RangeMin="0" RangeMax="0">0 0 0 0 0 0 0 0 0 0 0 0 0 0 0 0 0 0 0 0 0 0 0 0 0 0 0 0 0 0 0 0 0 0 0 0 0 0 0 0 0 0 0 0 0 0 0 0 0 0 0 0 0 0 0 0 0 0 0 0 0 0 0 0 0 0 0 0 0 0 0 0 0 0 0 0 0 0 0 0 0 0 0 0 0 0 0 0 0 0 0 0 0 0 0 0 0 0 0 0 0 0 0 0 0 0 0 0 0 0 0 0 0 0 0 0 0 0 0 0 0 </DataArray>
        <DataArray type="Float64" Name="displacement" format="ascii" NumberOfComponents="3">-0.9510565162951535 0 0 -1 0 0 -0.9510565162951535 3.78436673043415e-17 0 -0.8995449810324097 0.0905279866574577 0 -0.8090169943749473 0 0 -0.8090169943749475 7.198293278059966e-17 0 -0.7622061462500339 0.1748714009953402 0 -0.7626566532878148 0.1744208939575564 0 -0.587785252292473 0 0 -0.587785252292473 9.907600726170916e-17 0 -0.5515147743733566 0.2428202266160134 0 -0.6434715775097007 0.3344545831347552 0 -0.5518372209909574 0.2424977799984082 0 -0.3090169943749476 0 0 -0.3090169943749475 1.164708318489092e-16 0 -0.2874989922652022 0.287223757387044 0 -0.4627634379076086 0.4627771453930412 0 -0.462777145393029 0.462763437907618 0 -0.2872237573870346 0.2874989922652071 0 6.123233995736766e-17 0 0 -6.123233995736766e-17 1.224646799147353e-16 0 0.004408843925929422 0.3035792181827344 0 -0.2377058934437001 0.5462672540830755 0 -0.3295070418945313 0.638524036269503 0 -0.2372502597081048 0.5467228878186672 0 0.005437776192228272 0.3046081504490302 0 0.3090169943749475 0 0 0.3090169943749476 1.164708318489092e-16 0 0.2959886648069825 0.2902077182001164 0 0.01017304777058542 0.5765561576195511 0 -0.1648424715500733 0.7523190818325903 0 -0.1645338295400799 0.7526277238425821 0 0.01122909467295405 0.5776122045219171 0 0.2975775340923762 0.291796587485509 0 0.587785252292473 0 0 0.587785252292473 9.907600726170916e-17 0 0.5590522364873174 0.2483167542056278 0 0.2570943824224123 0.5505665742841733 0 0.01546774679571266 0.7929225890723198 0 -0.07625203938666342 0.8852690337616606 0 0.01609440530267422 0.7935492475792802 0 0.2584504200908114 0.5519226119525712 0 0.5607002401693407 0.249964757887652 0 0.8090169943749475 0 0 0.8090169943749473 7.198293278059968e-17 0 0.768214005069201 0.181798295651045 0 0.4793710770199359 0.4706671728431797 0 0.1941855786636144 0.7562757185873014 0 0.01909871004485962 0.9317771546111348 0 0.01927936168407425 0.9319578062503502 0 0.194780797707902 0.7568709376315889 0 0.4803893434520116 0.4716854392752559 0 0.7692582206441296 0.1828425112259744 0 0.9510565162951535 0 0 0.9510565162951535 3.784366730434151e-17 0 0.9033126397621509 0.0966873602378653 0 0.6557185095214974 0.344281490478536 0 0.3542408313233989 0.645759168676647 0 0.1124045381253383 0.8875954618747163 0 0.02038316984611868 0.9796168301539403 0 0.1124045381253385 0.8875954618747184 0 0.3542408313233996 0.6457591686766485 0 0.6557185095214981 0.3442814904785367 0 0.903312639762151 0.09668736023786551 0 1 0 0 1 1.499759782661858e-32 0 0.9510565162951535 0 0 0.7692582206441291 0.1828425112259741 0 0.4803893434520109 0.4716854392752549 0 0.1947807977079013 0.7568709376315864 0 0.01927936168407387 0.9319578062503472 0 0.0190987100448592 0.9317771546111349 0 0.1941855786636144 0.756275718587302 0 0.4793710770199362 0.4706671728431803 0 0.7682140050692016 0.1817982956510454 0 0.9510565162951535 3.784366730434151e-17 0 0.8090169943749475 0 0 0.5607002401693404 0.2499647578876518 0 0.2584504200908107 0.5519226119525698 0 0.01609440530267402 0.793549247579278 0 -0.07625203938666388 0.8852690337616581 0 0.01546774679571204 0.7929225890723193 0 0.2570943824224124 0.5505665742841735 0 0.5590522364873176 0.248316754205628 0 0.8090169943749473 7.198293278059968e-17 0 0.587785252292473 0 0 0.2975775340923759 0.2917965874855087 0 0.01122909467295406 0.5776122045219158 0 -0.1645338295400798 0.7526277238425807 0 -0.1648424715500733 0.7523190818325891 0 0.01017304777058511 0.5765561576195508 0 0.2959886648069826 0.2902077182001165 0 0.587785252292473 9.907600726170916e-17 0 0.3090169943749475 0 0 0.005437776192228455 0.3046081504490299 0 -0.2372502597081046 0.5467228878186663 0 -0.329507041894531 0.6385240362695016 0 -0.2377058934436998 0.5462672540830752 0 0.004408843925929309 0.3035792181827343 0 0.3090169943749476 1.164708318489092e-16 0 6.123233995736766e-17 0 0 -0.2872237573870345 0.2874989922652067 0 -0.4627771453930286 0.4627634379076174 0 -0.4627634379076077 0.4627771453930405 0 -0.2874989922652017 0.2872237573870441 0 -6.123233995736766e-17 1.224646799147353e-16 0 -0.3090169943749476 0 0 -0.5518372209909572 0.2424977799984078 0 -0.6434715775097003 0.3344545831347547 0 -0.5515147743733562 0.2428202266160131 0 -0.3090169943749475 1.164708318489092e-16 0 -0.587785252292473 0 0 -0.7626566532878147 0.1744208939575562 0 -0.7622061462500337 0.17487140099534 0 -0.587785252292473 9.907600726170916e-17 0 -0.8090169943749473 0 0 -0.8995449810324093 0.09052798665745775 0 -0.8090169943749475 7.198293278059966e-17 0 -0.9510565162951535 0 0 -0.9510565162951535 3.78436673043415e-17 0 -1 0 0 </DataArray>
      </PointData>
    </Piece>
  </UnstructuredGrid>
</VTKFile>
