<?xml version="1.0"?>
<VTKFile type="UnstructuredGrid" version="2.2">
  <UnstructuredGrid>
    <Piece NumberOfPoints="121" NumberOfCells="200">
      <Points>
        <DataArray type="Float64" NumberOfComponents="3" format="ascii">0.9 0 0 1 0 0 1 0.1 0 0.9 0.1 0 0.8 0 0 1 0.2 0 0.8 0.1 0 0.9 0.2 0 0.7000000000000001 0 0 1 0.3 0 0.7000000000000001 0.1 0 0.8 0.2 0 0.9 0.3 0 0.6000000000000001 0 0 1 0.4 0 0.6000000000000001 0.1 0 0.7000000000000001 0.2 0 0.8 0.3 0 0.9 0.4 0 0.5 0 0 1 0.5 0 0.5 0.1 0 0.6000000000000001 0.2 0 0.7000000000000001 0.3 0 0.8 0.4 0 0.9 0.5 0 0.4 0 0 1 0.6000000000000001 0 0.4 0.1 0 0.5 0.2 0 0.6000000000000001 0.3 0 0.7000000000000001 0.4 0 0.8 0.5 0 0.9 0.6000000000000001 0 0.3 0 0 1 0.7000000000000001 0 0.3 0.1 0 0.4 0.2 0 0.5 0.3 0 0.6000000000000001 0.4 0 0.7000000000000001 0.5 0 0.8 0.6000000000000001 0 0.9 0.7000000000000001 0 0.2 0 0 1 0.8 0 0.2 0.1 0 0.3 0.2 0 0.4 0.3 0 0.5 0.4 0 0.6000000000000001 0.5 0 0.7000000000000001 0.6000000000000001 0 0.8 0.7000000000000001 0 0.9 0.8 0 0.1 0 0 1 0.9 0 0.1 0.1 0 0.2 0.2 0 0.3 0.3 0 0.4 0.4 0 0.5 0.5 0 0.6000000000000001 0.6000000000000001 0 0.7000000000000001 0.7000000000000001 0 0.8 0.8 0 0.9 0.9 0 0 0 0 1 1 0 0 0.1 0 0.1 0.2 0 0.2 0.3 0 0.3 0.4 0 0.4 0.5 0 0.5 0.6000000000000001 0 0.6000000000000001 0.7000000000000001 0 0.7000000000000001 0.8 0 0.8 0.9 0 0.9 1 0 0 0.2 0 0.1 0.3 0 0.2 0.4 0 0.3 0.5 0 0.4 0.6000000000000001 0 0.5 0.7000000000000001 0 0.6000000000000001 0.8 0 0.7000000000000001 0.9 0 0.8 1 0 0 0.3 0 0.1 0.4 0 0.2 0.5 0 0.3 0.6000000000000001 0 0.4 0.7000000000000001 0 0.5 0.8 0 0.6000000000000001 0.9 0 0.7000000000000001 1 0 0 0.4 0 0.1 0.5 0 0.2 0.6000000000000001 0 0.3 0.7000000000000001 0 0.4 0.8 0 0.5 0.9 0 0.6000000000000001 1 0 0 0.5 0 0.1 0.6000000000000001 0 0.2 0.7000000000000001 0 0.3 0.8 0 0.4 0.9 0 0.5 1 0 0 0.6000000000000001 0 0.1 0.7000000000000001 0 0.2 0.8 0 0.3 0.9 0 0.4 1 0 0 0.7000000000000001 0 0.1 0.8 0 0.2 0.9 0 0.3 1 0 0 0.8 0 0.1 0.9 0 0.2 1 0 0 0.9 0 0.1 1 0 0 1 0 </DataArray>
      </Points>
      <Cells>
        <DataArray type="Int32" Name="connectivity" format="ascii">0 1 2 0 3 2 4 0 3 3 2 5 4 6 3 3 7 5 8 4 6 6 3 7 7 5 9 8 10 6 6 11 7 7 12 9 13 8 10 10 6 11 11 7 12 12 9 14 13 15 10 10 16 11 11 17 12 12 18 14 19 13 15 15 10 16 16 11 17 17 12 18 18 14 20 19 21 15 15 22 16 16 23 17 17 24 18 18 25 20 26 19 21 21 15 22 22 16 23 23 17 24 24 18 25 25 20 27 26 28 21 21 29 22 22 30 23 23 31 24 24 32 25 25 33 27 34 26 28 28 21 29 29 22 30 30 23 31 31 24 32 32 25 33 33 27 35 34 36 28 28 37 29 29 38 30 30 39 31 31 40 32 32 41 33 33 42 35 43 34 36 36 28 37 37 29 38 38 30 39 39 31 40 40 32 41 41 33 42 42 35 44 43 45 36 36 46 37 37 47 38 38 48 39 39 49 40 40 50 41 41 51 42 42 52 44 53 43 45 45 36 46 46 37 47 47 38 48 48 39 49 49 40 50 50 41 51 51 42 52 52 44 54 53 55 45 45 56 46 46 57 47 47 58 48 48 59 49 49 60 50 50 61 51 51 62 52 52 63 54 64 53 55 55 45 56 56 46 57 57 47 58 58 48 59 59 49 60 60 50 61 61 51 62 62 52 63 63 54 65 64 66 55 55 67 56 56 68 57 57 69 58 58 70 59 59 71 60 60 72 61 61 73 62 62 74 63 63 75 65 66 55 67 67 56 68 68 57 69 69 58 70 70 59 71 71 60 72 72 61 73 73 62 74 74 63 75 66 76 67 67 77 68 68 78 69 69 79 70 70 80 71 71 81 72 72 82 73 73 83 74 74 84 75 76 67 77 77 68 78 78 69 79 79 70 80 80 71 81 81 72 82 82 73 83 83 74 84 76 85 77 77 86 78 78 87 79 79 88 80 80 89 81 81 90 82 82 91 83 83 92 84 85 77 86 86 78 87 87 79 88 88 80 89 89 81 90 90 82 91 91 83 92 85 93 86 86 94 87 87 95 88 88 96 89 89 97 90 90 98 91 91 99 92 93 86 94 94 87 95 95 88 96 96 89 97 97 90 98 98 91 99 93 100 94 94 101 95 95 102 96 96 103 97 97 104 98 98 105 99 100 94 101 101 95 102 102 96 103 103 97 104 104 98 105 100 106 101 101 107 102 102 108 103 103 109 104 104 110 105 106 101 107 107 102 108 108 103 109 109 104 110 106 111 107 107 112 108 108 113 109 109 114 110 111 107 112 112 108 113 113 109 114 111 115 112 112 116 113 113 117 114 115 112 116 116 113 117 115 118 116 116 119 117 118 116 119 118 120 119 </DataArray>
        <DataArray type="Int32" Name="offsets" format="ascii">3 6 9 12 15 18 21 24 27 30 33 36 39 42 45 48 51 54 57 60 63 66 69 72 75 78 81 84 87 90 93 96 99 102 105 108 111 114 117 120 123 126 129 132 135 138 141 144 147 150 153 156 159 162 165 168 171 174 177 180 183 186 189 192 195 198 201 204 207 210 213 216 219 222 225 228 231 234 237 240 243 246 249 252 255 258 261 264 267 270 273 276 279 282 285 288 291 294 297 300 303 306 309 312 315 318 321 324 327 330 333 336 339 342 345 348 351 354 357 360 363 366 369 372 375 378 381 384 387 390 393 396 399 402 405 408 411 414 417 420 423 426 429 432 435 438 441 444 447 450 453 456 459 462 465 468 471 474 477 480 483 486 489 492 495 498 501 504 507 510 513 516 519 522 525 528 531 534 537 540 543 546 549 552 555 558 561 564 567 570 573 576 579 582 585 588 591 594 597 600 </DataArray>
        <DataArray type="Int8" Name="types" format="ascii">69 69 69 69 69 69 69 69 69 69 69 69 69 69 69 69 69 69 69 69 69 69 69 69 69 69 69 69 69 69 69 69 69 69 69 69 69 69 69 69 69 69 69 69 69 69 69 69 69 69 69 69 69 69 69 69 69 69 69 69 69 69 69 69 69 69 69 69 69 69 69 69 69 69 69 69 69 69 69 69 69 69 69 69 69 69 69 69 69 69 69 69 69 69 69 69 69 69 69 69 69 69 69 69 69 69 69 69 69 69 69 69 69 69 69 69 69 69 69 69 69 69 69 69 69 69 69 69 69 69 69 69 69 69 69 69 69 69 69 69 69 69 69 69 69 69 69 69 69 69 69 69 69 69 69 69 69 69 69 69 69 69 69 69 69 69 69 69 69 69 69 69 69 69 69 69 69 69 69 69 69 69 69 69 69 69 69 69 69 69 69 69 69 69 69 69 69 69 69 69 </DataArray>
      </Cells>
      <CellData>
        <DataArray type="UInt8" Name="vtkGhostType" format="ascii" RangeMin="0" RangeMax="1">0 0 0 0 0 0 0 0 0 0 0 0 0 0 0 0 0 0 0 0 0 0 0 0 0 0 0 0 0 0 0 0 0 0 0 0 0 0 0 0 0 0 0 0 0 0 0 0 0 0 0 0 0 0 0 0 0 0 0 0 0 0 0 0 0 0 0 0 0 0 0 0 0 0 0 0 0 0 0 0 0 0 0 0 0 0 0 0 0 0 0 0 0 0 0 0 0 0 0 0 0 0 0 0 0 0 0 0 0 0 0 0 0 0 0 0 0 0 0 0 0 0 0 0 0 0 0 0 0 0 0 0 0 0 0 0 0 0 0 0 0 0 0 0 0 0 0 0 0 0 0 0 0 0 0 0 0 0 0 0 0 0 0 0 0 0 0 0 0 0 0 0 0 0 0 0 0 0 0 0 0 0 0 0 0 0 0 0 0 0 0 0 0 0 0 0 0 0 0 0 </DataArray>
        <DataArray type="Int64" IdType="1" Name="vtkOriginalCellIds" format="ascii" RangeMin="0" RangeMax="199">0 1 2 3 4 5 6 7 8 9 10 11 12 13 14 15 16 17 18 19 20 21 22 23 24 25 26 27 28 29 30 31 32 33 34 35 36 37 38 39 40 41 42 43 44 45 46 47 48 49 50 51 52 53 54 55 56 57 58 59 60 61 62 63 64 65 66 67 68 69 70 71 72 73 74 75 76 77 78 79 80 81 82 83 84 85 86 87 88 89 90 91 92 93 94 95 96 97 98 99 100 101 102 103 104 105 106 107 108 109 110 111 112 113 114 115 116 117 118 119 120 121 122 123 124 125 126 127 128 129 130 131 132 133 134 135 136 137 138 139 140 141 142 143 144 145 146 147 148 149 150 151 152 153 154 155 156 157 158 159 160 161 162 163 164 165 166 167 168 169 170 171 172 173 174 175 176 177 178 179 180 181 182 183 184 185 186 187 188 189 190 191 192 193 194 195 196 197 198 199 </DataArray>
      </CellData>
      <PointData>
        <DataArray type="Int64" IdType="1" Name="vtkOriginalPointIds" format="ascii" RangeMin="0" RangeMax="120">9 10 21 20 8 32 19 31 7 43 18 30 42 6 54 17 29 41 53 5 65 16 28 40 52 64 4 76 15 27 39 51 63 75 3 87 14 26 38 50 62 74 86 2 98 13 25 37 49 61 73 85 97 1 109 12 24 36 48 60 72 84 96 108 0 120 11 23 35 47 59 71 83 95 107 119 22 34 46 58 70 82 94 106 118 33 45 57 69 81 93 105 117 44 56 68 80 92 104 116 55 67 79 91 103 115 66 78 90 102 114 77 89 101 113 88 100 112 99 111 110 </DataArray>
        <DataArray type="UInt8" Name="vtkGhostType" format="ascii" RangeMin="0" RangeMax="0">0 0 0 0 0 0 0 0 0 0 0 0 0 0 0 0 0 0 0 0 0 0 0 0 0 0 0 0 0 0 0 0 0 0 0 0 0 0 0 0 0 0 0 0 0 0 0 0 0 0 0 0 0 0 0 0 0 0 0 0 0 0 0 0 0 0 0 0 0 0 0 0 0 0 0 0 0 0 0 0 0 0 0 0 0 0 0 0 0 0 0 0 0 0 0 0 0 0 0 0 0 0 0 0 0 0 0 0 0 0 0 0 0 0 0 0 0 0 0 0 0 </DataArray>
      </PointData>
    </Piece>
  </UnstructuredGrid>
</VTKFile>
